<svg width="818" height="982" viewBox="0 0 818 982" fill="none" xmlns="http://www.w3.org/2000/svg">
<path fill-rule="evenodd" clip-rule="evenodd" d="M-361.366 -103.366C-315.013 -149.72 -254.5 -172.947 -168.044 -184.571C-81.5617 -196.198 30.7452 -196.2 180.608 -196.2C228.65 -196.2 272.832 -196.2 313.542 -195.816V104.025V104.098C313.542 167.126 313.542 214.492 318.45 250.996C323.363 287.541 333.21 313.334 353.005 333.128C372.8 352.923 398.594 362.77 435.138 367.684C471.643 372.592 519.008 372.592 582.036 372.592H582.108C582.605 372.592 583.008 372.189 583.008 371.692C583.008 371.195 582.605 370.792 582.108 370.792C518.994 370.792 471.749 370.79 435.378 365.9C399.033 361.013 373.683 351.26 354.278 331.855C334.873 312.452 325.12 287.101 320.234 250.757C315.344 214.386 315.342 167.14 315.342 104.025V-195.799C400.805 -194.969 470.91 -192.416 529.26 -184.571C615.717 -172.947 676.231 -149.72 722.586 -103.366C768.938 -57.0126 792.165 3.49969 803.788 89.956C815.415 176.438 815.417 288.745 815.417 438.608C815.417 514.302 815.417 580.415 813.918 638.458H381.358H46.775C46.278 638.458 45.875 638.861 45.875 639.358C45.875 639.855 46.278 640.258 46.775 640.258H380.458V1071.92C322.415 1073.42 256.302 1073.42 180.608 1073.42C30.7452 1073.42 -81.5617 1073.42 -168.044 1061.79C-254.5 1050.16 -315.013 1026.94 -361.366 980.586C-407.72 934.231 -430.947 873.717 -442.571 787.26C-448.265 744.911 -451.171 696.37 -452.654 640.258H-220.892C-220.395 640.258 -219.992 639.855 -219.992 639.358C-219.992 638.861 -220.395 638.458 -220.892 638.458H-452.701C-454.2 580.415 -454.2 514.302 -454.2 438.608C-454.2 390.567 -454.2 346.384 -453.816 305.675H-287.808H-287.734C-224.707 305.675 -177.341 305.675 -140.837 300.767C-104.292 295.854 -78.4987 286.007 -58.7043 266.212C-38.9097 246.418 -29.0629 220.624 -24.1496 184.08C-19.2417 147.576 -19.2417 100.21 -19.2417 37.1823V37.1083C-19.2417 36.6113 -19.6446 36.2083 -20.1417 36.2083C-20.6387 36.2083 -21.0417 36.6113 -21.0417 37.1083C-21.0417 100.223 -21.0436 147.469 -25.9335 183.84C-30.82 220.185 -40.5727 245.535 -59.9771 264.939C-79.3813 284.344 -104.732 294.097 -141.077 298.983C-177.447 303.873 -224.693 303.875 -287.808 303.875H-453.799C-452.969 218.411 -450.416 148.305 -442.571 89.956C-430.947 3.49969 -407.72 -57.0126 -361.366 -103.366ZM-455.601 304.027C-454.772 218.454 -452.218 148.201 -444.355 89.7162C-432.704 3.06026 -409.383 -57.8952 -362.639 -104.639C-315.895 -151.383 -254.94 -174.704 -168.284 -186.355C-81.668 -198 30.7592 -198 180.535 -198H180.608H180.682C228.741 -198 272.954 -198 313.704 -197.615C313.867 -197.848 314.136 -198 314.442 -198C314.753 -198 315.028 -197.842 315.189 -197.601C400.762 -196.772 471.015 -194.218 529.5 -186.355C616.156 -174.704 677.113 -151.383 723.859 -104.639C770.601 -57.8952 793.922 3.06026 805.572 89.7162C817.217 176.332 817.217 288.758 817.217 438.533V438.608V438.684C817.217 514.3 817.217 580.397 815.718 638.458H816.317C816.814 638.458 817.217 638.861 817.217 639.358C817.217 639.855 816.814 640.258 816.317 640.258H815.671C814.187 696.438 811.277 745.066 805.572 787.5C793.922 874.156 770.601 935.113 723.859 981.859C677.113 1028.6 616.156 1051.92 529.5 1063.57C487.066 1069.28 438.438 1072.19 382.258 1073.67V1074.32C382.258 1074.81 381.855 1075.22 381.358 1075.22C380.861 1075.22 380.458 1074.81 380.458 1074.32V1073.72C322.397 1075.22 256.3 1075.22 180.684 1075.22H180.608H180.533C30.7584 1075.22 -81.6683 1075.22 -168.284 1063.57C-254.94 1051.92 -315.895 1028.6 -362.639 981.859C-409.383 935.113 -432.704 874.156 -444.355 787.5C-450.06 745.066 -452.97 696.438 -454.454 640.258H-455.1C-455.597 640.258 -456 639.855 -456 639.358C-456 638.861 -455.597 638.458 -455.1 638.458H-454.501C-456 580.396 -456 514.299 -456 438.682V438.608V438.535C-456 390.476 -456 346.262 -455.615 305.513C-455.848 305.35 -456 305.08 -456 304.775C-456 304.463 -455.842 304.189 -455.601 304.027ZM382.258 1071.87C438.37 1070.39 486.911 1067.48 529.26 1061.79C615.717 1050.16 676.231 1026.94 722.586 980.586C768.938 934.231 792.165 873.717 803.788 787.26C809.482 744.911 812.388 696.37 813.871 640.258H382.258V1071.87ZM513.329 273.002L501.966 272.626L501.954 272.626L501.933 272.625C496.217 272.438 487.489 272.709 480.041 277.065C472.52 281.465 466.448 289.941 465.923 305.837C465.909 306.251 466.234 306.597 466.648 306.611C467.062 306.625 467.409 306.3 467.422 305.886C467.934 290.409 473.799 282.454 480.799 278.36C487.475 274.455 495.313 273.982 500.935 274.099L488.343 317.609C488.279 317.833 488.322 318.075 488.46 318.263L526.627 369.999C526.873 370.332 527.343 370.403 527.676 370.157C528.009 369.911 528.08 369.442 527.834 369.108L489.887 317.67L502.483 274.144L512.673 274.481C513.571 279.278 515.909 286.414 520.166 293.051C524.608 299.978 531.18 306.42 540.442 309.026C540.841 309.138 541.255 308.906 541.367 308.507C541.48 308.109 541.247 307.695 540.849 307.582C532.05 305.106 525.745 298.972 521.429 292.242C517.111 285.508 514.823 278.238 514.044 273.626C513.984 273.275 513.686 273.013 513.329 273.002ZM483.029 346.115C483.291 345.794 483.243 345.321 482.922 345.06C482.601 344.798 482.128 344.846 481.867 345.167L464.056 367.012C463.794 367.333 463.842 367.805 464.163 368.067C464.484 368.329 464.957 368.281 465.218 367.96L483.029 346.115ZM508.077 224.04C498.75 223.732 490.923 230.928 490.619 240.139C490.315 249.349 497.649 257.047 506.976 257.355C516.303 257.663 524.13 250.466 524.434 241.256C524.738 232.045 517.404 224.348 508.077 224.04ZM492.118 240.188C492.394 231.827 499.506 225.257 508.027 225.539C516.548 225.82 523.211 232.845 522.935 241.206C522.659 249.567 515.547 256.137 507.026 255.856C498.505 255.574 491.842 248.549 492.118 240.188Z" fill="white"/>
</svg>
