<svg width="288" height="304" viewBox="0 0 288 304" fill="none" xmlns="http://www.w3.org/2000/svg">
<path d="M113.552 0V25.9843H0V110.602H19.9451V179.195H0.061187V304H108.658V295.504H225.314V265.621H288V160.497H271.121V35.8969H226.649V0.000656405L113.552 0ZM125.847 12.2736H214.355L214.335 35.8962H169.392V87.8635H222.866V118.485H235.163V75.5899H181.686V48.1699H258.826V160.497H198.998V119.081H121.796V125.217L121.776 171.314V177.45H171.427V165.177H134.09V131.353H186.703L186.702 214.618L64.3724 214.598V152.74H91.7782V187.999H104.094V101.08H148.092V88.8073H91.7993V140.465H52.078V179.195H32.2375V110.603H70.0278V98.3304H12.2963V38.256H113.552V58.5763H47.3082V70.8487H125.846L125.847 12.2736ZM198.998 172.772H275.706V253.348H172.661V265.621H212.998V283.23H108.66V251.172H46.3628V263.445H96.3638V291.728H12.3568V191.489H52.0787V226.872H58.2255L133.742 226.892V269.582H146.036V226.892H198.998V206.185H242.913V228.412H255.208V193.91H198.998V172.772Z" fill="#34D399"/>
</svg>
