<svg xmlns="http://www.w3.org/2000/svg" xmlns:xlink="http://www.w3.org/1999/xlink" version="1.1" x="0px" y="0px" viewBox="0 0 100 125" enable-background="new 0 0 100 100" xml:space="preserve"><path d="M27.016,95.667c-0.479,0-0.961-0.148-1.374-0.457c-1.019-0.76-1.228-2.202-0.468-3.22l11.858-15.885l1.199-5.848  c0.255-1.243,1.47-2.049,2.717-1.79c1.244,0.255,2.047,1.472,1.79,2.716l-1.303,6.35c-0.067,0.33-0.208,0.643-0.41,0.913  L28.861,94.742C28.409,95.348,27.717,95.667,27.016,95.667z"/><path d="M65.066,93.559c-0.759,0-1.5-0.374-1.939-1.06l-20.89-32.593c-0.327-0.509-0.439-1.125-0.314-1.717l4.429-20.938  l-10.703,6.751l-3.428,14.677c-0.29,1.238-1.528,2.009-2.764,1.717c-1.237-0.288-2.005-1.525-1.717-2.764l3.644-15.596  c0.138-0.588,0.501-1.1,1.013-1.422L48.5,30.455c0.784-0.493,1.785-0.47,2.542,0.057c0.76,0.529,1.128,1.46,0.938,2.364  L46.62,58.219L67,90.017c0.687,1.069,0.374,2.493-0.695,3.178C65.921,93.441,65.49,93.559,65.066,93.559z"/><path d="M71.197,58.665c-0.421,0-0.847-0.115-1.229-0.356l-14.763-9.354c-0.375-0.238-0.674-0.58-0.859-0.983L47.638,33.36  c-0.53-1.155-0.023-2.52,1.13-3.05c1.152-0.533,2.52-0.024,3.051,1.131l6.425,13.991l14.188,8.99  c1.074,0.68,1.392,2.102,0.712,3.174C72.705,58.287,71.959,58.665,71.197,58.665z"/><path d="M56.324,28.333c-6.405,0-11.616-5.211-11.616-11.618c0-6.405,5.211-11.616,11.616-11.616  c6.406,0,11.617,5.211,11.617,11.616C67.941,23.122,62.73,28.333,56.324,28.333z M56.324,9.7c-3.869,0-7.016,3.147-7.016,7.015  c0,3.869,3.146,7.017,7.016,7.017s7.017-3.147,7.017-7.017C63.341,12.847,60.193,9.7,56.324,9.7z"/></svg>