<svg xmlns="http://www.w3.org/2000/svg" xmlns:xlink="http://www.w3.org/1999/xlink" xmlns:serif="http://www.serif.com/" viewBox="0 0 24 30" version="1.1" xml:space="preserve" style="" x="0px" y="0px" fill-rule="evenodd" clip-rule="evenodd" stroke-linejoin="round" stroke-miterlimit="2"><g><path d="M15.5,1.25c-1.794,-0 -3.25,1.456 -3.25,3.25c-0,1.794 1.456,3.25 3.25,3.25c1.794,-0 3.25,-1.456 3.25,-3.25c-0,-1.794 -1.456,-3.25 -3.25,-3.25Zm0,1.5c0.966,-0 1.75,0.784 1.75,1.75c0,0.966 -0.784,1.75 -1.75,1.75c-0.966,-0 -1.75,-0.784 -1.75,-1.75c0,-0.966 0.784,-1.75 1.75,-1.75Z"/><path d="M5.916,12.624l4.791,-3.194c0.406,-0.27 0.945,-0.217 1.29,0.128c0,-0 0.001,0 0.001,0.001c0.328,0.327 0.39,0.836 0.152,1.233l-1.365,2.275c-0.725,1.209 -0.419,2.77 0.708,3.615c0,0 1.989,1.492 1.989,1.492c0.23,0.172 0.393,0.418 0.463,0.697l0.827,3.311c0.101,0.401 0.508,0.646 0.91,0.546c0.401,-0.101 0.646,-0.508 0.546,-0.91c-0,0 -0.542,-2.167 -0.828,-3.311c-0.153,-0.613 -0.513,-1.154 -1.018,-1.533l-1.989,-1.492c-0.512,-0.384 -0.651,-1.094 -0.322,-1.643l1.365,-2.275c0.593,-0.987 0.437,-2.252 -0.377,-3.066c-0.001,-0 -0.001,-0.001 -0.001,-0.001c-0.851,-0.85 -2.182,-0.982 -3.183,-0.315c-1.752,1.168 -4.791,3.194 -4.791,3.194c-0.344,0.23 -0.438,0.696 -0.208,1.04c0.23,0.344 0.696,0.438 1.04,0.208Z"/><path d="M15.054,12.748c0,0 1.771,-0.123 3.767,-1.07c0.374,-0.178 0.534,-0.625 0.357,-0.999c-0.178,-0.374 -0.625,-0.534 -0.999,-0.357c-1.716,0.814 -3.233,0.93 -3.233,0.93c-0.413,0.03 -0.724,0.39 -0.694,0.802c0.03,0.413 0.39,0.724 0.802,0.694Z"/><path d="M9.275,17.307c0,0 -0.572,2.123 -2.346,4.207c-0.268,0.315 -0.23,0.789 0.085,1.057c0.315,0.268 0.789,0.23 1.057,-0.085c2.018,-2.37 2.654,-4.793 2.654,-4.793c0.106,-0.401 -0.132,-0.812 -0.532,-0.918c-0.401,-0.106 -0.812,0.132 -0.918,0.532Z"/></g></svg>